<?xml version="1.0" standalone="no"?>
<!DOCTYPE svg PUBLIC "-//W3C//DTD SVG 20010904//EN"
 "http://www.w3.org/TR/2001/REC-SVG-20010904/DTD/svg10.dtd">
<svg version="1.0" xmlns="http://www.w3.org/2000/svg"
 width="400.000000pt" height="400.000000pt" viewBox="0 0 400.000000 400.000000"
 preserveAspectRatio="xMidYMid meet">

<g transform="translate(0.000000,400.000000) scale(0.100000,-0.100000)"
fill="#000000" stroke="none">
<path d="M2780 3509 c-14 -3 -77 -29 -140 -57 -63 -27 -205 -89 -315 -137
-110 -48 -261 -113 -336 -145 -75 -32 -148 -66 -163 -75 -52 -35 -75 -120 -44
-167 9 -13 53 -34 118 -58 58 -20 159 -56 224 -79 66 -24 136 -54 156 -67 26
-18 77 -85 174 -234 149 -227 163 -240 229 -218 40 14 67 36 79 68 12 30 32
174 98 698 44 352 48 397 35 421 -24 47 -64 65 -115 50z"/>
<path d="M501 3157 c-29 -17 -50 -53 -51 -88 0 -15 36 -130 81 -255 44 -126
109 -310 144 -409 122 -348 122 -348 185 -365 51 -14 94 3 113 43 8 18 38 95
66 172 97 261 104 278 138 316 19 21 117 95 216 165 100 69 188 133 195 142
38 49 -6 142 -76 162 -33 9 -792 110 -932 125 -37 3 -63 1 -79 -8z"/>
<path d="M2669 2059 c-33 -12 -35 -18 -94 -249 -56 -221 -76 -269 -124 -313
-20 -18 -125 -82 -234 -142 -109 -61 -203 -118 -208 -128 -25 -45 32 -146 103
-183 15 -8 103 -30 194 -49 92 -20 246 -54 343 -76 97 -22 219 -49 271 -59
130 -27 258 -55 363 -79 115 -27 142 -27 172 4 52 51 60 34 -382 820 -53 94
-120 215 -151 270 -68 123 -84 142 -147 171 -54 26 -67 27 -106 13z"/>
<path d="M850 1841 c-35 -35 -28 -5 -94 -406 -108 -657 -107 -642 -63 -683 49
-44 13 -52 617 143 107 35 242 78 300 95 58 18 117 39 132 46 54 27 76 120 41
163 -11 12 -108 57 -233 107 -118 47 -231 98 -252 112 -25 18 -81 93 -169 225
-73 109 -138 205 -146 213 -8 8 -34 14 -59 14 -37 0 -51 -6 -74 -29z"/>
</g>
</svg>
